<svg xmlns="http://www.w3.org/2000/svg" width="400" height="400" viewBox="0 0 400 400">
  <g fill="none" stroke="#2c3e50" stroke-width="3" stroke-linecap="round" stroke-linejoin="round" opacity="0.06">
    
    <rect x="40" y="40" width="60" height="80" rx="8" transform="rotate(15 70 80)"/>
    <circle cx="70" cy="55" r="4" transform="rotate(15 70 80)"/>

    <g transform="translate(280, 280) rotate(-45)">
      <path d="M20,60 L20,90 M15,60 L25,60"/>
      <path d="M20,60 C0,10 40,10 20,60 C5,20 35,20 20,60"/>
      <rect x="15" y="60" width="10" height="30" rx="3"/>
    </g>

    <g transform="translate(40, 280) rotate(-10)">
      <path d="M10,30 L70,30 L65,60 C65,70 15,70 15,60 Z"/>
      <path d="M5,30 L15,30 M65,30 L75,30"/> 
      <path d="M20,20 C30,0 50,0 60,20"/> 
      <line x1="10" y1="20" x2="70" y2="20"/> 
    </g>

    <g transform="translate(280, 50) rotate(45)">
      <path d="M10,40 L60,40 C70,40 70,50 60,55 L10,55 Z"/>
      <rect x="-20" y="42" width="30" height="11" rx="2"/>
      <circle cx="-10" cy="47" r="1.5" fill="#2c3e50"/>
      <circle cx="-2" cy="47" r="1.5" fill="#2c3e50"/>
    </g>

    <g transform="translate(160, 160) rotate(-20)">
      <rect x="20" y="20" width="80" height="16" rx="2"/>
      <path d="M20,24 L10,24 C5,24 5,32 10,32 L20,32"/>
      <path d="M100,24 L110,24 C115,24 115,32 110,32 L100,32"/>
    </g>
    
  </g>
</svg>
